PathFileType	4	(X/Y/Z)	OpenSim_Sub07_CSBaseline_Magnet.trc
DataRate	CameraRate	NumFrames	NumMarkers	Units	OrigDataRate	OrigDataStartFrame	OrigNumFrames
100	100	13	8	m	100	1	7788
Frame#	Time	torso_imu_offset_imu	pelvis_imu_offset_imu	tibia_r_imu_offset_imu	femur_r_imu_offset_imu	tibia_l_imu_offset_imu	femur_l_imu_offset_imu	toes_r_imu_offset_imu	toes_l_imu_offset_imu
				X1	Y1	Z1	X2	Y2	Z2	X3	Y3	Z3	X4	Y4	Z4	X5	Y5	Z5	X6	Y6	Z6	X7	Y7	Z7	X8		Y8	Z8	

1	0	0.93295393	0.20476734	-0.08558462	-0.75859637	0.16634474	-0.56770017	-0.57779559	-0.59471202	0.13457378	-0.75597447	-0.39503393	-0.15297201	-0.66136592	0.49413980	0.12870869	-0.60273666	-0.15217795	0.28350285	-0.64145400	-0.35452120	-0.39243293	-0.71738036	-0.20454441	-0.40210251
2	0.01000000	0.93309023	0.20218601	-0.08483691	-0.75642682	0.16945633	-0.56298217	-0.58020653	-0.59175790	0.13431585	-0.75974258	-0.39632968	-0.14949705	-0.66180220	0.49258550	0.12395182	-0.60078026	-0.14592887	0.28322948	-0.63934559	-0.35354916	-0.39554260	-0.71511802	-0.20108540	-0.39993873
3	0.02000000	0.93244636	0.19772758	-0.08266301	-0.75947500	0.16621618	-0.56050667	-0.57696029	-0.59307763	0.13375890	-0.75800946	-0.39710910	-0.14748181	-0.66016204	0.49487750	0.12927509	-0.60124959	-0.14832393	0.28432718	-0.63705555	-0.35579672	-0.39598144	-0.71801192	-0.20169325	-0.40294663
4	0.03000000	0.92999119	0.20025389	-0.08508205	-0.75343350	0.16525934	-0.56211894	-0.57795659	-0.59221786	0.13109265	-0.75105180	-0.40093900	-0.15015588	-0.65749449	0.48748901	0.13078547	-0.60008976	-0.15191110	0.28524514	-0.63732614	-0.35383824	-0.39814938	-0.71399295	-0.20318736	-0.40753217
5	0.04000000	0.93563132	0.20026203	-0.07862027	-0.75180239	0.16844222	-0.56008108	-0.57487972	-0.59200653	0.12958464	-0.75573578	-0.39850634	-0.15401869	-0.66270233	0.48844531	0.13035208	-0.59887212	-0.15066720	0.28438394	-0.63635893	-0.35204518	-0.39281227	-0.71750007	-0.19770048	-0.39724584
6	0.05000000	0.93037272	0.20254313	-0.08512409	-0.75269592	0.16817311	-0.56397249	-0.57683227	-0.58731815	0.13007968	-0.75792800	-0.39299768	-0.15090281	-0.66304023	0.49108771	0.13155554	-0.60219780	-0.14897326	0.30788406	-0.64329354	-0.35601267	-0.39784263	-0.71913604	-0.20090863	-0.40433355
7	0.06000000	0.93489879	0.20071723	-0.08920545	-0.75263813	0.16603739	-0.56265598	-0.57811015	-0.59418144	0.13272908	-0.75625463	-0.39602568	-0.15119720	-0.66118490	0.48989650	0.13158005	-0.60253296	-0.14921334	0.31709860	-0.63985010	-0.35528775	-0.39412885	-0.71758354	-0.19902212	-0.40127823
8	0.07000000	0.93513369	0.19821320	-0.07932895	-0.75395084	0.16901150	-0.55849228	-0.58369346	-0.59716193	0.13443159	-0.75856362	-0.40053065	-0.14554117	-0.66175205	0.49498491	0.12371388	-0.60201262	-0.14919338	0.28220985	-0.63761776	-0.35513401	-0.40021690	-0.71372338	-0.19970203	-0.40090755
9	0.08000000	0.93591667	0.20381159	-0.08194643	-0.74991137	0.16763767	-0.56264245	-0.58201056	-0.59309613	0.13436929	-0.75705753	-0.39731009	-0.14823399	-0.66144920	0.49516033	0.12690680	-0.60591395	-0.14903313	0.28519704	-0.63790327	-0.35561649	-0.40140954	-0.71471006	-0.20474135	-0.39965834
10	0.09000000	0.93025800	0.20188458	-0.09020245	-0.75193118	0.16911534	-0.55969132	-0.57738578	-0.59294397	0.13368733	-0.75328104	-0.39543931	-0.14903895	-0.66217714	0.49412822	0.13428676	-0.60563150	-0.14975340	0.28909130	-0.64375026	-0.35415426	-0.39806096	-0.71735995	-0.19713375	-0.40141559
11	0.10000000	0.92866313	0.19939023	-0.08513645	-0.74810347	0.16715945	-0.56071346	-0.57853466	-0.59208419	0.13138482	-0.75622980	-0.39352968	-0.14921682	-0.65938367	0.49558433	0.12616562	-0.60373908	-0.15162212	0.28511869	-0.63748740	-0.35176598	-0.40163209	-0.71471500	-0.19569188	-0.39834286
12	0.11000000	0.93322764	0.20727779	-0.08176554	-0.75363195	0.17117980	-0.56306427	-0.58250945	-0.59278698	0.13326161	-0.76006622	-0.39548188	-0.14650471	-0.65573378	0.49322958	0.12639049	-0.60166472	-0.15120656	0.28002068	-0.63439284	-0.35214071	-0.40097049	-0.71444918	-0.20252163	-0.40125479
13	0.12000000	0.93443229	0.20154145	-0.08820202	-0.75161956	0.17258146	-0.56163602	-0.57850806	-0.59316624	0.13727145	-0.75926946	-0.39747014	-0.15154764	-0.66326027	0.49416326	0.12858562	-0.60532998	-0.15181295	0.28661396	-0.64453965	-0.35052703	-0.39490467	-0.72434601	-0.20103268	-0.40606364
